<svg xmlns="http://www.w3.org/2000/svg" viewBox="0 0 366.6 367">
	<path d="M192.8 72.9V128c0 .5-.1 1-.3 1.5-.2.5-.6.8-1 1.1-.4.3-.9.4-1.5.4-.5 0-1-.1-1.5-.4L90.4 64.7c-.9-.5-2-.8-3-.8-1.1 0-2.1.3-3 .9-.9.5-1.6 1.3-2.1 2.3-.5.9-.7 2-.7 3v96.7c0 2.1.5 4.2 1.5 6 1 1.8 2.5 3.4 4.3 4.5l188.6 125c.9.5 2 .8 3 .8 1.1 0 2.1-.3 3-.8.9-.5 1.7-1.3 2.2-2.3.5-.9.7-2 .7-3.1V71.1c0-.8-.1-1.6-.4-2.3-.3-.7-.7-1.4-1.3-2-.6-.6-1.2-1-1.9-1.3-.7-.3-1.5-.5-2.3-.5h-78.6c-1 0-2 .2-3 .7s-1.8 1-2.5 1.7-1.3 1.6-1.6 2.6-.5 1.9-.5 2.9z" style="fill:#4189f5" />
	<path d="M81.6 191.6V298c0 .5.1 1.1.3 1.6.2.5.5 1 .8 1.3.4.4.8.7 1.3.9.5.2 1 .3 1.6.3h84.1c.5 0 1.1-.1 1.5-.3.5-.2.9-.5 1.3-.9s.7-.8.8-1.3c.2-.5.3-1 .3-1.6v-50.6c0-.7-.2-1.4-.5-2-.3-.6-.8-1.1-1.4-1.5l-84-55.8c-.6-.4-1.3-.6-2.1-.6-.7 0-1.4.2-2.1.6-.6.4-1.1.9-1.5 1.5-.3.5-.4 1.3-.4 2z" style="fill:#126cf3" />
</svg>
